REM DIRINDEX 1\8,1\2\11,1\3\12,1\3\14,1\5\15,1\5\16,1\6\17,1\6\18,1\4\19,1\4\20,1\4\21,1\4\22,1\7\23,1\7\24,1\7\25,1\2\9\26,1\2\9\27,1\2\10\28,1\2\10\29,1\2\10\30,1\2\10\31,1\2\10\32,1\3\13\33,1\3\13\34,1\3\13\35
REM DIRNAME folder01,folder02,folder03,folder04,folder05,folder06,folder07,folder08,folder09,folder10,folder11,folder12,folder13,folder14,folder15,folder16,folder17,folder18,folder19,folder20,folder21,folder22,folder23,folder24,folder25,folder26,folder27,folder28,folder29,folder30,folder31,folder32,folder33,folder34,folder35
TITLE ""
FILE "98 098_UNIT4_SET3.mp3" MP3
  TRACK 01 AUDIO
    TITLE "14:cjc123_8229"
    INDEX 01 00:00:00
  TRACK 02 AUDIO
    TITLE "0:"
    INDEX 01 00:02:45
  TRACK 03 AUDIO
    TITLE "33:cjc123_8230"
    INDEX 01 00:03:21
  TRACK 04 AUDIO
    TITLE "0:"
    INDEX 01 00:04:38
  TRACK 05 AUDIO
    TITLE "34:cjc123_8231"
    INDEX 01 00:04:50
  TRACK 06 AUDIO
    TITLE "0:"
    INDEX 01 00:05:59
  TRACK 07 AUDIO
    TITLE "35:cjc123_8232"
    INDEX 01 00:06:30
  TRACK 08 AUDIO
    TITLE "0:"
    INDEX 01 00:10:45
  TRACK 09 AUDIO
    TITLE "33:cjc123_8233"
    INDEX 01 00:11:23
  TRACK 10 AUDIO
    TITLE "0:"
    INDEX 01 00:12:24
  TRACK 11 AUDIO
    TITLE "34:cjc123_8234"
    INDEX 01 00:12:56
  TRACK 12 AUDIO
    TITLE "0:"
    INDEX 01 00:13:57
  TRACK 13 AUDIO
    TITLE "35:cjc123_8235"
    INDEX 01 00:14:31
  TRACK 14 AUDIO
    TITLE "0:"
    INDEX 01 00:18:42
  TRACK 15 AUDIO
    TITLE "33:cjc123_8236"
    INDEX 01 00:19:22
  TRACK 16 AUDIO
    TITLE "0:"
    INDEX 01 00:20:57
  TRACK 17 AUDIO
    TITLE "34:cjc123_8237"
    INDEX 01 00:21:00
  TRACK 18 AUDIO
    TITLE "0:"
    INDEX 01 00:22:21
  TRACK 19 AUDIO
    TITLE "35:cjc123_8238"
    INDEX 01 00:22:68
  TRACK 20 AUDIO
    TITLE "0:"
    INDEX 01 00:27:24
  TRACK 21 AUDIO
    TITLE "33:cjc123_8239"
    INDEX 01 00:28:06
  TRACK 22 AUDIO
    TITLE "0:"
    INDEX 01 00:29:21
  TRACK 23 AUDIO
    TITLE "34:cjc123_8240"
    INDEX 01 00:29:46
  TRACK 24 AUDIO
    TITLE "0:"
    INDEX 01 00:30:57
  TRACK 25 AUDIO
    TITLE "35:cjc123_8241"
    INDEX 01 00:31:29
  TRACK 26 AUDIO
    TITLE "0:"
    INDEX 01 00:35:00
  TRACK 27 AUDIO
    TITLE "33:cjc123_8242"
    INDEX 01 00:35:49
  TRACK 28 AUDIO
    TITLE "0:"
    INDEX 01 00:36:60
  TRACK 29 AUDIO
    TITLE "34:cjc123_8243"
    INDEX 01 00:37:08
  TRACK 30 AUDIO
    TITLE "0:"
    INDEX 01 00:38:20
  TRACK 31 AUDIO
    TITLE "35:cjc123_8244"
    INDEX 01 00:38:69
  TRACK 32 AUDIO
    TITLE "0:"
    INDEX 01 00:43:27
  TRACK 33 AUDIO
    TITLE "33:cjc123_8245"
    INDEX 01 00:44:14
  TRACK 34 AUDIO
    TITLE "0:"
    INDEX 01 00:45:12
  TRACK 35 AUDIO
    TITLE "34:cjc123_8246"
    INDEX 01 00:45:49
  TRACK 36 AUDIO
    TITLE "0:"
    INDEX 01 00:46:51
  TRACK 37 AUDIO
    TITLE "35:cjc123_8247"
    INDEX 01 00:47:25
  TRACK 38 AUDIO
    TITLE "0:"
    INDEX 01 00:52:45
  TRACK 39 AUDIO
    TITLE "33:cjc123_8248"
    INDEX 01 00:53:25
  TRACK 40 AUDIO
    TITLE "0:"
    INDEX 01 00:54:50
  TRACK 41 AUDIO
    TITLE "34:cjc123_8249"
    INDEX 01 00:54:74
  TRACK 42 AUDIO
    TITLE "0:"
    INDEX 01 00:56:14
  TRACK 43 AUDIO
    TITLE "35:cjc123_8250"
    INDEX 01 00:56:61
  TRACK 44 AUDIO
    TITLE "0:"
    INDEX 01 01:02:50
  TRACK 45 AUDIO
    TITLE "33:cjc123_8251"
    INDEX 01 01:03:27
  TRACK 46 AUDIO
    TITLE "0:"
    INDEX 01 01:04:39
  TRACK 47 AUDIO
    TITLE "34:cjc123_8252"
    INDEX 01 01:04:64
  TRACK 48 AUDIO
    TITLE "0:"
    INDEX 01 01:05:66
  TRACK 49 AUDIO
    TITLE "35:cjc123_8253"
    INDEX 01 01:06:49
  TRACK 50 AUDIO
    TITLE "0:"
    INDEX 01 01:12:09
  TRACK 51 AUDIO
    TITLE "33:cjc123_8254"
    INDEX 01 01:12:70
  TRACK 52 AUDIO
    TITLE "0:"
    INDEX 01 01:14:00
  TRACK 53 AUDIO
    TITLE "34:cjc123_8255"
    INDEX 01 01:14:27
  TRACK 54 AUDIO
    TITLE "0:"
    INDEX 01 01:15:35
  TRACK 55 AUDIO
    TITLE "35:cjc123_8256"
    INDEX 01 01:16:11
  TRACK 56 AUDIO
    TITLE "0:"
    INDEX 01 01:20:59
  TRACK 57 AUDIO
    TITLE "33:cjc123_8257"
    INDEX 01 01:21:33
  TRACK 58 AUDIO
    TITLE "0:"
    INDEX 01 01:22:42
  TRACK 59 AUDIO
    TITLE "34:cjc123_8258"
    INDEX 01 01:22:54
  TRACK 60 AUDIO
    TITLE "0:"
    INDEX 01 01:23:69
  TRACK 61 AUDIO
    TITLE "35:cjc123_8259"
    INDEX 01 01:24:43
  TRACK 62 AUDIO
    TITLE "0:"
    INDEX 01 01:29:21
  TRACK 63 AUDIO
    TITLE "33:cjc123_8260"
    INDEX 01 01:30:20
  TRACK 64 AUDIO
    TITLE "0:"
    INDEX 01 01:31:36
  TRACK 65 AUDIO
    TITLE "34:cjc123_8261"
    INDEX 01 01:31:63
  TRACK 66 AUDIO
    TITLE "0:"
    INDEX 01 01:33:03
  TRACK 67 AUDIO
    TITLE "35:cjc123_8262"
    INDEX 01 01:33:54
  TRACK 68 AUDIO
    TITLE "0:"
    INDEX 01 01:36:52
  TRACK 69 AUDIO
    TITLE "33:cjc123_8263"
    INDEX 01 01:37:28
  TRACK 70 AUDIO
    TITLE "0:"
    INDEX 01 01:39:00
  TRACK 71 AUDIO
    TITLE "34:cjc123_8264"
    INDEX 01 01:39:25
  TRACK 72 AUDIO
    TITLE "0:"
    INDEX 01 01:41:12
  TRACK 73 AUDIO
    TITLE "35:cjc123_8265"
    INDEX 01 01:41:65
  TRACK 74 AUDIO
    TITLE "0:"
    INDEX 01 01:46:74
  TRACK 75 AUDIO
    TITLE "33:cjc123_8266"
    INDEX 01 01:47:50
  TRACK 76 AUDIO
    TITLE "0:"
    INDEX 01 01:48:61
  TRACK 77 AUDIO
    TITLE "34:cjc123_8267"
    INDEX 01 01:49:10
  TRACK 78 AUDIO
    TITLE "0:"
    INDEX 01 01:50:07
  TRACK 79 AUDIO
    TITLE "35:cjc123_8268"
    INDEX 01 01:50:62
  TRACK 80 AUDIO
    TITLE "0:"
    INDEX 01 01:54:15
  TRACK 81 AUDIO
    TITLE "33:cjc123_8269"
    INDEX 01 01:54:64
  TRACK 82 AUDIO
    TITLE "0:"
    INDEX 01 01:55:67
  TRACK 83 AUDIO
    TITLE "34:cjc123_8270"
    INDEX 01 01:56:24
  TRACK 84 AUDIO
    TITLE "0:"
    INDEX 01 01:57:27
  TRACK 85 AUDIO
    TITLE "35:cjc123_8271"
    INDEX 01 01:58:07
  TRACK 86 AUDIO
    TITLE "0:"
    INDEX 01 02:01:46
  TRACK 87 AUDIO
    TITLE "33:cjc123_8272"
    INDEX 01 02:02:26
  TRACK 88 AUDIO
    TITLE "0:"
    INDEX 01 02:03:26
  TRACK 89 AUDIO
    TITLE "34:cjc123_8273"
    INDEX 01 02:03:59
  TRACK 90 AUDIO
    TITLE "0:"
    INDEX 01 02:04:64
  TRACK 91 AUDIO
    TITLE "35:cjc123_8274"
    INDEX 01 02:05:40
  TRACK 92 AUDIO
    TITLE "0:"
    INDEX 01 02:08:27
